# xmcd
#
# Track frame offsets:
#      183
#      15488
#      32400
#      47385
#      65080
# 
# Disc length: 1065 seconds
#
# Revision: 2
# Processed by: cddbd v1.4PL0 Copyright (c) Steve Scherf et al.
#
# Submitted via: FreeRIP 1.20
#
DISCID=32042705
DTITLE=Claudio Baglioni - Rarità
DYEAR=1900
DGENRE=Pop
TTITLE0=13 storia d'oggi
TTITLE1=Bianchi cristalli sereni
TTITLE2=com'e' dolce la sera
TTITLE3=se non fosse tra queste mie braccia la inventerei
TTITLE4=non voglio innamorarmi mai
EXTD=
EXTT0=
EXTT1=
EXTT2=
EXTT3=
EXTT4=
PLAYORDER=
